<svg width="677" height="94" viewBox="0 0 677 94" fill="none" xmlns="http://www.w3.org/2000/svg">
<path d="M0.296 76V5.92H12.296V34.528H20.552L33.896 5.92H46.856L31.112 39.328L47.624 76H34.28L20.456 44.992H12.296V76H0.296ZM66.4985 93.28L73.9865 73.12L53.6345 23.2H66.6905L77.0585 50.176C77.6345 51.648 78.1785 53.44 78.6905 55.552C79.2025 57.6 79.5865 59.296 79.8425 60.64C80.1625 59.296 80.5785 57.6 81.0905 55.552C81.6665 53.44 82.2105 51.648 82.7225 50.176L92.6105 23.2H105.091L79.0745 93.28H66.4985ZM145.469 76C140.221 76 135.997 74.432 132.797 71.296C129.661 68.16 128.093 64.032 128.093 58.912V16.768H110.717V5.92H140.093V58.624C140.093 60.608 140.637 62.208 141.725 63.424C142.877 64.576 144.413 65.152 146.333 65.152H161.789V76H145.469ZM194.584 76.96C190.104 76.96 186.2 76.096 182.872 74.368C179.544 72.64 176.952 70.24 175.096 67.168C173.304 64.032 172.408 60.384 172.408 56.224V42.976C172.408 38.816 173.304 35.2 175.096 32.128C176.952 28.992 179.544 26.56 182.872 24.832C186.2 23.104 190.104 22.24 194.584 22.24C199 22.24 202.84 23.104 206.104 24.832C209.432 26.56 211.992 28.992 213.784 32.128C215.64 35.2 216.568 38.816 216.568 42.976V52.48H184.024V56.224C184.024 63.712 187.576 67.456 194.68 67.456C200.184 67.456 203.416 65.632 204.376 61.984H216.184C215.288 66.528 212.856 70.176 208.888 72.928C204.984 75.616 200.216 76.96 194.584 76.96ZM184.024 42.976V44.992L204.952 44.896V42.88C204.952 39.232 204.088 36.448 202.36 34.528C200.632 32.544 198.04 31.552 194.584 31.552C191.064 31.552 188.408 32.544 186.616 34.528C184.888 36.512 184.024 39.328 184.024 42.976ZM284.173 76L301.837 5.92H317.293L335.052 76H322.765L318.925 59.008H300.301L296.461 76H284.173ZM302.509 49.216H316.717L312.493 30.4C311.789 27.264 311.181 24.448 310.669 21.952C310.157 19.392 309.805 17.536 309.613 16.384C309.421 17.536 309.069 19.392 308.557 21.952C308.045 24.448 307.437 27.232 306.733 30.304L302.509 49.216ZM372.935 76C368.007 76 364.071 74.592 361.127 71.776C358.247 68.896 356.807 65.024 356.807 60.16V34.048H342.503V23.2H356.807V8.32H368.903V23.2H389.159V34.048H368.903V59.872C368.903 61.408 369.319 62.688 370.151 63.712C371.047 64.672 372.263 65.152 373.799 65.152H388.199V76H372.935ZM403.234 76V65.152H421.281V34.048H405.154V23.2H433.282V65.152H449.506V76H403.234ZM426.466 14.368C424.034 14.368 422.114 13.76 420.706 12.544C419.298 11.264 418.594 9.568 418.594 7.456C418.594 5.344 419.298 3.68 420.706 2.464C422.114 1.184 424.034 0.543999 426.466 0.543999C428.898 0.543999 430.818 1.184 432.226 2.464C433.634 3.68 434.338 5.344 434.338 7.456C434.338 9.568 433.634 11.264 432.226 12.544C430.818 13.76 428.898 14.368 426.466 14.368ZM482.396 76.96C477.916 76.96 474.012 76.096 470.684 74.368C467.356 72.64 464.764 70.24 462.908 67.168C461.116 64.032 460.22 60.384 460.22 56.224V42.976C460.22 38.816 461.116 35.2 462.908 32.128C464.764 28.992 467.356 26.56 470.684 24.832C474.012 23.104 477.916 22.24 482.396 22.24C486.812 22.24 490.652 23.104 493.916 24.832C497.244 26.56 499.804 28.992 501.596 32.128C503.452 35.2 504.38 38.816 504.38 42.976V52.48H471.836V56.224C471.836 63.712 475.388 67.456 482.492 67.456C487.996 67.456 491.228 65.632 492.188 61.984H503.996C503.1 66.528 500.668 70.176 496.7 72.928C492.796 75.616 488.028 76.96 482.396 76.96ZM471.836 42.976V44.992L492.764 44.896V42.88C492.764 39.232 491.9 36.448 490.172 34.528C488.444 32.544 485.852 31.552 482.396 31.552C478.876 31.552 476.22 32.544 474.428 34.528C472.7 36.512 471.836 39.328 471.836 42.976ZM518.455 76V23.2H530.167V33.28H530.359C530.935 29.824 532.439 27.136 534.871 25.216C537.303 23.232 540.471 22.24 544.375 22.24C549.559 22.24 553.687 23.968 556.759 27.424C559.895 30.88 561.463 35.52 561.463 41.344V76H549.463V42.592C549.463 39.392 548.599 36.928 546.871 35.2C545.207 33.472 542.935 32.608 540.055 32.608C537.047 32.608 534.679 33.504 532.951 35.296C531.287 37.088 530.455 39.648 530.455 42.976V76H518.455ZM576.113 76V65.152L603.665 33.76H576.977V23.2H617.681V34.048L589.841 65.44H618.737V76H576.113ZM649.132 76.96C643.692 76.96 639.404 75.552 636.268 72.736C633.132 69.856 631.564 65.952 631.564 61.024C631.564 55.84 633.356 51.84 636.94 49.024C640.524 46.144 645.516 44.704 651.916 44.704H664.588V40.288C664.588 37.728 663.756 35.744 662.092 34.336C660.428 32.928 658.092 32.224 655.084 32.224C652.332 32.224 650.06 32.8 648.268 33.952C646.54 35.104 645.58 36.64 645.388 38.56H633.964C634.22 33.632 636.3 29.696 640.204 26.752C644.172 23.744 649.26 22.24 655.468 22.24C661.996 22.24 667.148 23.84 670.924 27.04C674.7 30.24 676.588 34.624 676.588 40.192V76H664.972V67.072H664.78C664.076 70.144 662.348 72.576 659.596 74.368C656.844 76.096 653.356 76.96 649.132 76.96ZM653.068 68.032C656.46 68.032 659.212 67.2 661.324 65.536C663.5 63.808 664.588 61.536 664.588 58.72V52.384H652.204C649.516 52.384 647.404 53.088 645.868 54.496C644.332 55.84 643.564 57.696 643.564 60.064C643.564 62.56 644.396 64.512 646.06 65.92C647.788 67.328 650.124 68.032 653.068 68.032Z" fill="white"/>
</svg>
